<svg id="logotipo-waas" x="0" y="0" version="1.1" viewBox="0 0 209 48" xml:space="preserve"><defs/><path d="M84 11.7c0-1.1-.4-2.1-1.2-2.8-.8-.7-1.8-1-2.9-1-.9 0-1.8.3-2.5.8-.8.5-1.3 1.3-1.6 2.2L68.6 31l-6.8-20.1c-.5-1.8-2.2-3-4.1-3-.9 0-1.8.3-2.5.8-.7.3-1.2 1-1.5 1.9l-7.2 19.7-6.8-19.7c-.3-.9-.9-1.7-1.7-2.2-.7-.5-1.6-.7-2.4-.7H17.2c-.1-.3-.3-.5-.5-.7C14.3 4 10 3.5 7 5.9c-3 2.4-3.5 6.7-1.1 9.7 2.4 3 6.7 3.5 9.7 1.1.7-.5 1.3-1.2 1.7-2h14.3l9.7 26.2c.3.9 1 1.7 1.8 2.2.9.5 1.9.8 2.9.8s2-.2 2.8-.8c.8-.5 1.5-1.3 1.8-2.2l6.8-18.6 6.5 18.6c.3.9 1 1.7 1.8 2.2 1.8 1 4 1 5.8 0 .9-.5 1.5-1.3 1.9-2.2l10.1-27.2c.3-.7.5-1.4.5-2zm-69.2-.4c-.1 1.9-1.6 3.3-3.4 3.3-1.9 0-3.5-1.5-3.5-3.4s1.5-3.5 3.4-3.5 3.5 1.5 3.5 3.4v.2zM140.8 10.6c-.4-.9-1.1-1.6-2-2.1-.8-.5-1.8-.8-2.8-.7-1 0-2 .3-2.9.8-.8.5-1.5 1.2-1.9 2.1L118 38c-.3.5-.4 1.1-.4 1.7 0-.6-.2-1.2-.4-1.8L104 10.6c-.4-.9-1.1-1.6-1.9-2.1-.8-.5-1.8-.8-2.8-.8-1 0-2 .3-2.9.8-.8.5-1.5 1.2-1.9 2.1L81.4 37.9c-.3.6-.4 1.2-.4 1.9 0 1.1.5 2.1 1.4 2.8.9.7 2 1.2 3.1 1.2.7 0 1.5-.2 2.1-.6.7-.4 1.2-1.1 1.5-1.8l2.3-5.1h16.2l2.2 5.1c.3.7.8 1.4 1.5 1.8.6.4 1.4.6 2.1.6 1.1 0 2.2-.4 3-1.2.8-.7 1.3-1.6 1.3-2.7 0 1.1.5 2 1.3 2.7.9.7 2 1.2 3.1 1.2.7 0 1.5-.2 2.1-.6.7-.4 1.2-1.1 1.6-1.8l2.3-5.1h16.2l2.2 5.1c.3.7.8 1.4 1.5 1.8.6.4 1.4.6 2.1.6 1.1 0 2.2-.4 3-1.2.9-.7 1.4-1.7 1.4-2.8 0-.6-.2-1.3-.4-1.9l-13.3-27.3zM94.4 29.3l5-11.2 5 11.2h-10zm36.8 0l5-11.2 5 11.2h-10zM203.5 7.4c-2-3.1-6.2-4.1-9.3-2-.7.4-1.3 1-1.8 1.7-.2.2-.3.5-.5.7h-18.6c-2.6 0-5.1.5-7.5 1.5-2.1.8-3.9 2.2-5.2 4-1.2 1.7-1.9 3.7-1.9 5.8-.1 1.7.3 3.3 1.1 4.8 1 1.5 2.3 2.6 3.9 3.4 2.5 1.2 5.1 2 7.8 2.5 1.9.3 3.7.8 5.4 1.6.8.3 1.4 1.1 1.4 1.9 0 1.1-.6 2.1-1.6 2.6-1.4.6-2.9.9-4.4.8-1.5 0-3.1-.1-4.6-.5-1.4-.4-2.7-.9-4-1.6-.5-.3-1-.6-1.5-.8-.4-.1-.8-.2-1.2-.2-.8 0-1.6.4-2.1 1.1-1 1.3-1.2 2.9-.6 4.4.3.5.7 1 1.2 1.3 1.7 1.1 3.6 2 5.6 2.4 2.4.6 4.9.9 7.4.8 2.6.1 5.2-.4 7.7-1.3 2.1-.8 3.9-2.1 5.2-3.9 1.2-1.7 1.9-3.7 1.9-5.8 0-1.6-.4-3.2-1.1-4.6-1-1.5-2.3-2.6-3.9-3.4-2.4-1.2-4.9-2-7.6-2.5-1.5-.3-3-.7-4.5-1.2-.8-.3-1.5-.7-2.1-1.2-.4-.4-.6-1-.6-1.5 0-1.1.6-2 1.6-2.5 1.2-.7 2.7-1.1 4.1-1l13.3-.1h5.2c1.9 3.3 6.1 4.5 9.4 2.6 3.3-1.9 4.5-6.1 2.6-9.4 0-.1-.1-.3-.2-.4zm-2.2 3.8c0 1.9-1.5 3.5-3.5 3.5-1.9 0-3.4-1.5-3.5-3.3v-.2c.1-1.9 1.8-3.3 3.7-3.2 1.8 0 3.2 1.5 3.3 3.2z" class="st0"/></svg>