<svg width="775" height="497" viewBox="0 0 775 497" fill="none" xmlns="http://www.w3.org/2000/svg">
<path d="M307.463 371.684C307.55 369.602 307.16 367.527 306.322 365.619C305.484 363.711 304.221 362.019 302.629 360.672C299.593 357.991 295.661 356.543 291.609 356.616C288.171 356.606 284.808 357.615 281.943 359.513C279.038 361.543 276.868 364.457 275.756 367.82L248.109 445.673L221.816 368.013C220.838 364.671 218.803 361.734 216.014 359.645C213.226 357.555 209.835 356.425 206.349 356.423C202.911 356.413 199.548 357.421 196.683 359.32C193.778 361.35 191.608 364.264 190.496 367.627L162.463 443.741L135.667 367.82C134.583 364.332 132.24 361.372 129.093 359.513C126.3 357.681 123.039 356.688 119.697 356.654H49.4014C48.8416 355.677 48.2218 354.735 47.5454 353.834C44.0077 349.396 39.138 346.209 33.6524 344.742C28.1669 343.276 22.3552 343.607 17.0721 345.687C11.789 347.767 7.31349 351.487 4.30378 356.298C1.29407 361.11 -0.090923 366.759 0.352507 372.416C0.795937 378.073 3.0444 383.438 6.76715 387.722C10.4899 392.007 15.4904 394.985 21.0332 396.218C26.576 397.451 32.3685 396.874 37.5586 394.572C42.7487 392.27 47.0625 388.364 49.8654 383.429H105.12L142.743 484.657C143.986 488.222 146.452 491.233 149.703 493.157C153.115 495.104 156.987 496.105 160.916 496.054C164.782 496.085 168.586 495.085 171.936 493.157C175.202 491.199 177.719 488.207 179.089 484.657L205.383 412.986L230.516 484.657C231.759 488.222 234.225 491.233 237.476 493.157C240.91 495.051 244.767 496.044 248.689 496.044C252.611 496.044 256.469 495.051 259.903 493.157C263.236 491.279 265.776 488.26 267.056 484.657L305.723 379.566C306.724 377.049 307.312 374.388 307.463 371.684ZM39.7348 370.37C39.6144 373.835 38.152 377.117 35.6559 379.525C33.1598 381.932 29.8254 383.277 26.3561 383.275C22.8079 383.275 19.4049 381.866 16.896 379.359C14.387 376.852 12.9774 373.452 12.9774 369.907C12.9159 366.361 14.2664 362.936 16.7319 360.386C19.1974 357.835 22.5759 356.368 26.1241 356.307C29.6723 356.245 33.0997 357.595 35.6522 360.058C38.2047 362.522 39.6732 365.898 39.7348 369.443V370.37Z" fill="white"/>
<path d="M527.283 367.512C525.699 364.113 523.053 361.319 519.743 359.553C516.467 357.611 512.725 356.596 508.916 356.616C505.044 356.58 501.236 357.595 497.896 359.553C494.675 361.373 492.106 364.157 490.549 367.512L439.509 473.143C438.488 475.258 437.909 477.559 437.808 479.905C437.74 477.546 437.173 475.229 436.145 473.105L385.105 367.512C383.498 364.128 380.858 361.341 377.565 359.553C374.247 357.629 370.479 356.616 366.642 356.616C362.806 356.616 359.037 357.629 355.719 359.553C352.49 361.363 349.917 364.149 348.372 367.512L297.332 473.105C296.224 475.355 295.629 477.822 295.592 480.33C295.581 482.422 296.045 484.49 296.949 486.377C297.853 488.264 299.174 489.922 300.812 491.225C304.139 494.11 308.394 495.701 312.799 495.707C315.678 495.731 318.501 494.912 320.919 493.35C323.581 491.682 325.672 489.242 326.912 486.357L335.805 466.691H398.6L407.3 486.357C408.476 489.224 410.5 491.663 413.1 493.35C415.513 494.922 418.34 495.743 421.22 495.707C425.514 495.729 429.658 494.128 432.82 491.225C434.376 489.974 435.642 488.4 436.529 486.612C437.417 484.825 437.906 482.866 437.963 480.871C438.021 482.875 438.514 484.842 439.409 486.637C440.304 488.431 441.578 490.01 443.144 491.264C446.465 494.158 450.724 495.75 455.131 495.746C458.005 495.775 460.826 494.969 463.251 493.428C465.929 491.76 468.023 489.303 469.244 486.396L478.137 466.73H540.777L549.477 486.396C550.68 489.257 552.697 491.702 555.277 493.428C557.702 494.969 560.523 495.775 563.397 495.746C567.695 495.788 571.846 494.184 574.997 491.264C576.636 489.961 577.956 488.303 578.861 486.416C579.765 484.528 580.229 482.461 580.217 480.368C580.18 477.861 579.586 475.393 578.477 473.143L527.283 367.512ZM347.792 439.8L367.125 396.373L386.459 439.8H347.792ZM489.969 439.8L509.303 396.334L528.636 439.8H489.969Z" fill="white"/>
<path d="M769.491 355.225C767.201 351.659 764.077 348.704 760.388 346.616C756.699 344.527 752.557 343.368 748.319 343.239C744.081 343.109 739.876 344.014 736.066 345.873C732.256 347.733 728.957 350.492 726.455 353.911C725.778 354.812 725.158 355.754 724.599 356.732H656.816C655.424 356.732 654.071 356.732 652.64 356.732C642.675 356.588 632.793 358.549 623.64 362.489C615.676 365.751 608.732 371.088 603.533 377.943C598.711 384.372 596.131 392.203 596.187 400.236C595.997 406.642 597.462 412.989 600.44 418.666C604.249 424.399 609.614 428.929 615.907 431.725C625.437 436.204 635.511 439.425 645.873 441.307C653.107 442.382 660.143 444.517 666.753 447.643C668.293 448.248 669.634 449.27 670.624 450.594C671.615 451.918 672.216 453.492 672.36 455.139C672.405 457.196 671.866 459.224 670.806 460.988C669.745 462.753 668.206 464.18 666.367 465.107C660.994 467.616 655.08 468.745 649.16 468.391C643.176 468.452 637.205 467.803 631.373 466.459C625.893 465.057 620.626 462.926 615.713 460.123C613.888 458.965 611.943 458.006 609.913 457.264C608.357 456.735 606.723 456.474 605.08 456.491C603.492 456.516 601.933 456.91 600.524 457.641C599.114 458.372 597.894 459.42 596.96 460.702C594.647 463.504 593.413 467.039 593.48 470.67C593.375 473.05 593.839 475.421 594.833 477.586C596.066 479.63 597.712 481.393 599.667 482.764C606.271 487.159 613.602 490.35 621.32 492.191C630.758 494.418 640.429 495.507 650.127 495.436C660.293 495.658 670.406 493.899 679.9 490.259C687.838 487.195 694.79 482.025 700.007 475.307C704.767 468.784 707.277 460.892 707.16 452.82C707.213 446.676 705.611 440.63 702.52 435.318C698.793 429.661 693.574 425.142 687.44 422.259C678.2 417.687 668.378 414.398 658.247 412.484C652.418 411.405 646.67 409.934 641.04 408.079C638.17 407.083 635.537 405.505 633.307 403.443C631.841 401.817 631.077 399.679 631.18 397.493C631.18 395.47 631.74 393.486 632.798 391.761C633.855 390.036 635.37 388.637 637.173 387.718C641.98 384.945 647.481 383.604 653.027 383.854H704.26H724.328C726.104 386.998 728.499 389.75 731.368 391.944C734.237 394.138 737.521 395.728 741.022 396.62C744.523 397.511 748.169 397.684 751.739 397.13C755.309 396.575 758.73 395.304 761.795 393.393C764.86 391.482 767.506 388.97 769.573 386.01C771.64 383.049 773.086 379.701 773.823 376.167C774.56 372.632 774.574 368.986 773.862 365.446C773.151 361.907 771.73 358.548 769.684 355.573L769.491 355.225ZM761.023 370.1C761.028 371.859 760.686 373.601 760.015 375.228C759.345 376.854 758.361 378.332 757.118 379.578C755.875 380.823 754.399 381.811 752.773 382.485C751.147 383.16 749.404 383.507 747.644 383.507C744.178 383.499 740.849 382.151 738.355 379.746C735.861 377.34 734.395 374.063 734.265 370.602V369.636C734.327 366.091 735.795 362.715 738.348 360.251C740.9 357.788 744.328 356.438 747.876 356.5C751.424 356.561 754.803 358.029 757.268 360.579C759.734 363.13 761.084 366.554 761.023 370.1Z" fill="white"/>
<path d="M349.648 136.621C347.55 138.401 346.054 140.785 345.362 143.447C344.67 146.109 344.816 148.92 345.781 151.496C347.622 155.239 350.834 158.131 354.752 159.571L378.571 161.657C378.93 161.689 379.276 161.81 379.577 162.009C379.878 162.209 380.124 162.48 380.293 162.799C380.462 163.117 380.549 163.473 380.545 163.834C380.541 164.195 380.447 164.549 380.272 164.864L315.08 285.564C314.417 287.284 314.116 289.122 314.196 290.963C314.276 292.805 314.735 294.61 315.544 296.266C315.544 296.536 315.815 296.768 315.931 297C317.116 299.02 318.811 300.693 320.847 301.853C322.883 303.012 325.187 303.617 327.531 303.607C328.348 303.606 329.164 303.529 329.967 303.375C331.135 303.141 332.266 302.751 333.331 302.216C334.645 301.559 334.645 301.559 342.031 294.991L358.773 280C370.992 269.105 387.967 253.882 409.233 234.796L482.429 169.114L483.473 168.187L484.285 166.912C485.465 164.985 486.139 162.794 486.248 160.538C486.356 158.283 485.894 156.037 484.904 154.007C483.77 151.629 481.948 149.647 479.672 148.317C477.397 146.987 474.774 146.372 472.144 146.55L454.473 145.739C454.108 145.73 453.752 145.625 453.439 145.435C453.127 145.245 452.871 144.977 452.695 144.657C452.522 144.336 452.432 143.978 452.432 143.614C452.432 143.25 452.522 142.891 452.695 142.571L515.296 23.8411C516.376 21.841 516.917 19.5945 516.865 17.3223C516.814 15.0502 516.171 12.8306 515.001 10.8817C513.831 8.93286 512.173 7.32179 510.191 6.2069C508.209 5.092 505.971 4.51164 503.696 4.52286C501.668 4.52333 499.668 4.99975 497.857 5.91378C496.62 6.53196 496.62 6.53196 489.351 12.9456L472.801 27.5888L422.535 71.9047L349.648 136.621ZM494.339 26.2365C494.524 26.0574 494.749 25.925 494.996 25.8501L407.029 156.866L429.572 157.562V157.987L444.265 158.643L333.795 279.15C333.795 279.15 333.795 278.918 333.795 278.841L402.969 150.993L403.317 150.337L363.491 147.052C363.049 147.032 362.624 146.877 362.274 146.609C361.923 146.34 361.662 145.971 361.528 145.551C361.393 145.13 361.39 144.678 361.52 144.256C361.65 143.834 361.906 143.461 362.253 143.189C381.973 125.687 465.377 51.8138 494.339 26.2365Z" fill="white"/>
<path d="M483.125 113.748C480.335 117.79 478.718 122.525 478.454 127.429C478.189 132.333 479.287 137.214 481.626 141.533C483.966 145.851 487.455 149.439 491.708 151.9C495.961 154.36 500.813 155.597 505.726 155.474C510.639 155.35 515.422 153.872 519.546 151.201C523.67 148.53 526.975 144.771 529.094 140.34C531.213 135.91 532.064 130.98 531.553 126.095C531.043 121.211 529.19 116.563 526.2 112.666L553.267 43.8548C554.641 39.7736 557.369 36.2839 561 33.9639C564.953 31.5428 569.51 30.284 574.147 30.3321C579.629 30.1976 584.988 31.9734 589.304 35.3548C591.069 36.6993 592.469 38.4649 593.374 40.49C594.279 42.5151 594.661 44.7348 594.485 46.9457C594.268 50.5853 593.444 54.1631 592.049 57.5321L508.491 263.85C506.817 268.092 503.598 271.543 499.481 273.509C494.063 276.366 488.013 277.814 481.888 277.721C475.868 277.835 469.919 276.412 464.604 273.587C460.558 271.543 457.396 268.095 455.711 263.889L440.244 224.905L418.281 244.609L429.881 272.968C433.856 282.971 441.312 291.203 450.877 296.15C460.367 301.302 471.011 303.961 481.811 303.878C492.603 303.905 503.234 301.249 512.744 296.15C522.426 291.275 529.99 283.03 534.011 272.968L617.995 66.3412C620.457 60.1835 621.843 53.6493 622.093 47.023C622.246 40.9179 620.949 34.8635 618.307 29.3564C615.666 23.8492 611.756 19.0462 606.897 15.3412C597.591 8.07311 586.072 4.21373 574.263 4.40707C564.767 4.32271 555.422 6.77719 547.196 11.5161L543.329 13.9116C535.961 19.1392 530.32 26.4436 527.128 34.8912L500.951 102.196C497.337 102.772 493.884 104.097 490.814 106.087C487.744 108.076 485.125 110.686 483.125 113.748ZM518.389 128.662C518.389 132.217 516.976 135.627 514.459 138.142C511.943 140.656 508.53 142.068 504.972 142.068C501.42 142.058 498.017 140.641 495.509 138.128C493.002 135.615 491.593 132.211 491.593 128.662C491.778 125.235 493.269 122.01 495.762 119.65C498.254 117.29 501.557 115.974 504.991 115.974C508.425 115.974 511.728 117.29 514.221 119.65C516.713 122.01 518.205 125.235 518.389 128.662Z" fill="white"/>
<path d="M241.42 273.046C245.389 283.052 252.846 291.286 262.416 296.227C271.906 301.379 282.55 304.038 293.349 303.955C296.821 303.945 300.286 303.661 303.712 303.105L303.403 302.525C301.695 299.07 300.746 295.29 300.62 291.439C300.493 287.587 301.191 283.753 302.668 280.193L303.557 278.377L304.833 275.982C301.095 277.232 297.176 277.859 293.233 277.836C287.214 277.95 281.265 276.527 275.949 273.702C271.852 271.658 268.666 268.158 267.017 263.889L183.227 57.4933C181.927 54.3666 181.219 51.0259 181.139 47.641C180.965 45.3261 181.406 43.0064 182.418 40.9167C183.429 38.827 184.976 37.0415 186.9 35.741C191.835 32.0858 197.85 30.1821 203.991 30.3319C209.026 30.2622 213.99 31.5288 218.375 34.0023C222.172 36.1379 225.039 39.6083 226.417 43.7387L296.017 226.064L369.484 43.8546C370.987 39.7541 373.817 36.2728 377.527 33.9637C381.494 31.5414 386.063 30.2829 390.712 30.3319C392.085 30.3468 393.455 30.463 394.811 30.6796C395.544 37.5253 398.889 43.8257 404.15 48.2719C409.41 52.7182 416.183 54.9686 423.061 54.5559C429.939 54.1431 436.393 51.0989 441.084 46.0555C445.774 41.012 448.34 34.3571 448.248 27.4728C448.19 21.6465 446.22 16.0002 442.641 11.4001C440.112 7.96905 436.782 5.20756 432.94 3.35581C429.099 1.50405 424.863 0.618107 420.601 0.775076C415.044 0.982764 409.702 2.97438 405.367 6.45463C398.232 4.41582 390.754 3.8645 383.397 4.83488C376.041 5.80527 368.962 8.27665 362.601 12.0955C353.943 17.3185 347.286 25.2898 343.693 34.7364L296.597 151.418L252.247 34.8523C248.615 25.0077 241.579 16.7854 232.411 11.6705C223.734 6.80794 213.938 4.29099 203.991 4.36826C191.775 4.19483 179.838 8.02146 170.003 15.2637C164.824 18.9263 160.626 23.8062 157.78 29.4728C154.935 35.1395 153.528 41.4188 153.685 47.7569C153.797 54.264 155.108 60.6949 157.552 66.7273L241.42 273.046ZM407.957 27.7433C407.957 25.1335 408.723 22.581 410.161 20.4024L410.393 20.0546C411.715 18.1762 413.499 16.6697 415.572 15.6802C417.646 14.6906 419.94 14.2515 422.232 14.405C424.525 14.5586 426.74 15.2996 428.663 16.5568C430.586 17.814 432.152 19.5449 433.211 21.5827C434.27 23.6205 434.786 25.8965 434.709 28.1914C434.632 30.4862 433.965 32.7226 432.771 34.6849C431.578 36.6472 429.899 38.2694 427.896 39.395C425.893 40.5206 423.634 41.1118 421.336 41.1115C419.579 41.1115 417.839 40.7657 416.216 40.0939C414.593 39.4221 413.118 38.4373 411.876 37.196C410.634 35.9546 409.648 34.4809 408.976 32.859C408.303 31.2371 407.957 29.4988 407.957 27.7433Z" fill="white"/>
</svg>
