<svg width="1142" height="311" viewBox="0 0 1142 311" fill="none" xmlns="http://www.w3.org/2000/svg">
<rect width="1142" height="311" fill="none"/>
<path d="M475.839 95.9713C475.943 93.4723 475.475 90.9824 474.471 88.6918C473.466 86.4012 471.952 84.3705 470.043 82.7546C466.402 79.5357 461.687 77.7984 456.828 77.8854C452.705 77.8739 448.671 79.0842 445.236 81.3634C441.743 83.79 439.138 87.2909 437.817 91.3339L404.663 184.778L373.132 91.5658C371.96 87.5535 369.519 84.0292 366.175 81.5211C362.831 79.013 358.765 77.656 354.585 77.6535C350.462 77.642 346.429 78.8523 342.993 81.1316C339.5 83.5581 336.895 87.059 335.574 91.102L301.957 182.459L269.823 91.3339C268.536 87.1411 265.723 83.5836 261.941 81.3634C258.591 79.1635 254.68 77.9723 250.673 77.9317V77.9317H166.375C165.704 76.7584 164.96 75.6278 164.149 74.5464C159.907 69.2192 154.067 65.3942 147.489 63.634C140.911 61.8738 133.941 62.2714 127.606 64.7682C121.271 67.2651 115.904 71.7294 112.294 77.5045C108.685 83.2796 107.024 90.0606 107.556 96.8502C108.088 103.64 110.784 110.079 115.249 115.222C119.713 120.365 125.709 123.939 132.356 125.419C139.003 126.898 145.949 126.206 152.173 123.443C158.397 120.68 163.57 115.992 166.931 110.069H233.192L278.309 231.57C279.81 235.843 282.764 239.454 286.655 241.772C290.747 244.11 295.39 245.311 300.102 245.25C304.738 245.287 309.3 244.087 313.317 241.772C317.224 239.411 320.24 235.824 321.895 231.57L353.426 145.545L383.565 231.57C385.067 235.843 388.021 239.454 391.912 241.772C396.029 244.046 400.656 245.238 405.359 245.238C410.062 245.238 414.688 244.046 418.806 241.772C422.792 239.505 425.834 235.886 427.384 231.57L473.845 105.246C474.995 102.279 475.668 99.1488 475.839 95.9713ZM154.783 94.3946C154.627 98.5491 152.87 102.482 149.879 105.369C146.888 108.257 142.896 109.875 138.739 109.884V109.884C136.629 109.884 134.539 109.467 132.589 108.658C130.639 107.849 128.869 106.663 127.378 105.168C125.888 103.673 124.707 101.898 123.904 99.9464C123.1 97.9943 122.69 95.9028 122.696 93.7917V93.7917C122.622 89.5362 124.242 85.4257 127.198 82.3644C130.155 79.3031 134.206 77.5417 138.461 77.4679C142.716 77.3942 146.826 79.0139 149.887 81.9709C152.948 84.9278 154.709 88.9797 154.783 93.2353V94.3946Z" fill="#0000FF"/>
<path d="M739.444 91.3339C737.547 87.2406 734.375 83.8725 730.402 81.7343C726.462 79.4389 721.979 78.2382 717.419 78.2563C712.783 78.2193 708.221 79.42 704.204 81.7343C700.338 83.9369 697.258 87.2934 695.394 91.3339L634.188 218.121C632.963 220.66 632.269 223.421 632.147 226.237C632.066 223.406 631.386 220.624 630.154 218.075L568.947 91.3339C567.036 87.25 563.867 83.8858 559.905 81.7343C555.915 79.4571 551.4 78.2595 546.806 78.2595C542.212 78.2595 537.697 79.4571 533.707 81.7343C529.804 83.9039 526.7 87.2687 524.85 91.3339L463.644 218.075C462.32 220.761 461.607 223.706 461.557 226.7C461.544 229.219 462.1 231.707 463.184 233.98C464.268 236.253 465.852 238.251 467.817 239.824C471.807 243.287 476.909 245.196 482.191 245.204C485.644 245.233 489.029 244.249 491.929 242.375C495.122 240.372 497.629 237.444 499.116 233.981L509.781 210.377H585.13L595.563 233.981C596.988 237.413 599.411 240.337 602.518 242.375C605.412 244.262 608.801 245.247 612.255 245.204C617.405 245.231 622.374 243.309 626.166 239.824C628.037 238.317 629.559 236.421 630.624 234.267C631.689 232.112 632.272 229.752 632.333 227.35C632.396 229.763 632.985 232.134 634.058 234.296C635.131 236.459 636.663 238.361 638.546 239.871C642.529 243.344 647.636 245.255 652.92 245.25C656.367 245.285 659.75 244.318 662.658 242.468C665.858 240.453 668.366 237.508 669.845 234.028L680.51 210.423H755.627L766.06 234.028C767.513 237.455 769.929 240.386 773.015 242.468C775.923 244.318 779.306 245.285 782.752 245.25C787.906 245.3 792.884 243.376 796.663 239.871C798.628 238.306 800.212 236.317 801.296 234.052C802.38 231.786 802.936 229.305 802.923 226.793C802.878 223.784 802.166 220.822 800.836 218.121L739.444 91.3339ZM524.201 178.1L547.386 125.929L570.57 178.1H524.201ZM694.699 178.1L717.883 125.929L741.067 178.1H694.699Z" fill="#0000FF"/>
<path d="M1029.9 76.4013C1027.15 72.1212 1023.41 68.5744 1018.98 66.0677C1014.56 63.561 1009.59 62.1699 1004.51 62.0146C999.427 61.8593 994.384 62.9446 989.815 65.1766C985.247 67.4086 981.291 70.72 978.289 74.8246C977.478 75.906 976.735 77.0366 976.064 78.2099H894.78C893.11 78.2099 891.487 78.2099 889.772 78.2099C877.82 78.0143 865.964 80.3699 854.995 85.1197C845.444 89.0358 837.118 95.4414 830.884 103.669C825.101 111.386 822.006 120.785 822.074 130.427C821.847 138.117 823.603 145.735 827.174 152.548C831.741 159.43 838.175 164.867 845.722 168.222C857.159 173.578 869.236 177.443 881.657 179.723C890.332 181.014 898.769 183.576 906.696 187.329C908.543 188.054 910.15 189.281 911.338 190.87C912.526 192.46 913.247 194.349 913.42 196.325C913.468 198.794 912.82 201.226 911.548 203.342C910.277 205.459 908.435 207.174 906.233 208.29C899.79 211.302 892.698 212.657 885.599 212.232C878.422 212.305 871.262 211.526 864.269 209.913C857.697 208.231 851.381 205.673 845.49 202.308C843.29 200.925 840.96 199.76 838.534 198.829C836.661 198.23 834.705 197.933 832.738 197.948C830.835 197.979 828.964 198.451 827.274 199.329C825.585 200.206 824.122 201.464 823.001 203.003C820.227 206.366 818.747 210.609 818.828 214.968C818.702 217.824 819.258 220.67 820.451 223.269C821.929 225.722 823.903 227.838 826.247 229.483C834.166 234.758 842.958 238.589 852.213 240.798C863.531 243.471 875.129 244.779 886.758 244.694C898.95 244.96 911.076 242.849 922.462 238.48C931.972 234.785 940.305 228.583 946.573 220.533C952.282 212.704 955.292 203.231 955.152 193.543C955.32 186.127 953.477 178.803 949.819 172.35C945.349 165.559 939.091 160.135 931.735 156.675C920.655 151.187 908.877 147.24 896.727 144.943C889.731 143.659 882.835 141.876 876.093 139.609C872.648 138.444 869.488 136.563 866.819 134.091C865.071 132.134 864.155 129.571 864.269 126.949C864.269 124.521 864.94 122.14 866.209 120.07C867.477 117.999 869.293 116.32 871.456 115.217C877.221 111.888 883.818 110.278 890.467 110.579H951.906H975.971C978.101 114.352 980.973 117.655 984.413 120.289C987.854 122.922 991.792 124.831 995.991 125.901C1000.19 126.971 1004.56 127.179 1008.84 126.513C1013.12 125.848 1017.22 124.322 1020.9 122.028C1024.58 119.734 1027.75 116.719 1030.23 113.166C1032.71 109.612 1034.44 105.593 1035.33 101.352C1036.21 97.1097 1036.23 92.7326 1035.37 88.4844C1034.52 84.2362 1032.81 80.2047 1030.36 76.6332L1029.9 76.4013ZM1019.74 94.2554C1019.75 96.3664 1019.34 98.4579 1018.54 100.41C1017.73 102.362 1016.55 104.136 1015.06 105.631C1013.57 107.126 1011.8 108.312 1009.85 109.121C1007.9 109.931 1005.81 110.347 1003.7 110.347V110.347C999.543 110.338 995.551 108.721 992.56 105.833C989.569 102.946 987.812 99.0127 987.656 94.8582V93.6525C987.736 89.397 989.503 85.3475 992.568 82.3949C995.633 79.4423 999.746 77.8285 1004 77.9084C1008.26 77.9884 1012.3 79.7555 1015.26 82.8212C1018.21 85.8868 1019.82 89.9999 1019.74 94.2554V94.2554Z" fill="#0000FF"/>
</svg>
